<svg width="100" height="100" viewBox="0 0 100 100" fill="none" xmlns="http://www.w3.org/2000/svg">
<path d="M85.2474 62.6824H15.2891V18.793H85.2474V62.6824Z" fill="white"/>
<path d="M24.3319 98.4646V93.6444H17.8369V98.4646H15.7065V87.548H17.8369V92.0563H24.3319V87.548H26.4612V98.4646H24.3319Z" fill="white"/>
<path d="M34.9178 89.1215L32.3483 94.3539H37.474L34.9178 89.1215ZM39.4973 98.4641L38.2197 95.8499H31.5872L30.2944 98.4641H28.0122L33.7166 87.5475H36.2412L41.915 98.4641H39.4973Z" fill="white"/>
<path d="M48.7601 89.0759H45.5966V92.312H48.7601C50.4483 92.312 51.1624 91.8572 51.1624 90.6763C51.1624 89.5439 50.4483 89.0759 48.7601 89.0759ZM51.5598 98.4641C51.4212 97.8767 51.2847 97.0623 51.1624 96.5903L50.8293 95.2462C50.5094 93.9903 50.0529 93.8414 48.4259 93.8414H45.5966V98.4641H43.4673V87.5475H49.2624C52.1365 87.5475 53.3539 88.7001 53.3539 90.4818C53.3539 92.4315 51.2236 92.9906 50.7233 93.0646C52.0458 93.1739 52.7752 93.5386 53.0646 95.2301L53.4599 97.1028C53.5669 97.6943 53.7187 98.2544 53.8246 98.4641H51.5598Z" fill="white"/>
<path d="M69.3234 98.4646V88.9235L64.8376 98.4646H62.5096L58.0217 88.9235V98.4646H56.1216V87.548H59.498L63.7729 96.7124L68.0316 87.548H71.3927V98.4646H69.3234Z" fill="white"/>
<path d="M79.8523 89.1215L77.2798 94.3539H82.4055L79.8523 89.1215ZM84.4299 98.4641L83.1493 95.8499H76.5187L75.2259 98.4641H72.9468L78.6471 87.5475H81.1748L86.8455 98.4641H84.4299Z" fill="white"/>
<path d="M96.5066 98.4646L90.3163 89.4228V98.4646H88.3999V87.548H91.3188L97.5081 96.5908V87.548H99.4256V98.4646H96.5066Z" fill="white"/>
<path d="M2.77456 94.5765C1.8454 94.5765 1.23002 95.169 1.23002 96.1616C1.23002 97.1522 1.80159 97.7194 2.77456 97.7194C3.72206 97.7194 4.31807 97.1026 4.31807 96.1424C4.31807 95.169 3.75569 94.5765 2.77456 94.5765ZM3.08122 98.4436C2.09093 98.4436 1.52957 98.0972 1.19641 97.6465C1.19641 97.7812 1.16278 98.1651 1.15362 98.2816H0.0869141C0.0960834 98.0527 0.12155 97.5675 0.12155 97.3801V92.1598H1.23002V94.6879C1.64061 94.22 2.17754 93.8635 3.09142 93.8635C4.39449 93.8635 5.48769 94.6626 5.48769 96.1363C5.48769 97.5452 4.38735 98.4436 3.08122 98.4436Z" fill="white"/>
<path d="M8.59398 99.9106H7.37241L8.27815 98.2891L5.93994 94.0249H7.21959L8.89249 97.3562L10.4707 94.0249H11.6474L8.59398 99.9106Z" fill="white"/>
<path d="M82.2324 57.8599H65.1407V23.7062H70.7809V52.9313C70.7809 54.5266 72.085 55.823 73.6876 55.823C75.2933 55.823 76.5943 54.5266 76.5943 52.9313L76.5913 46.9848H82.2324V57.8599ZM61.0369 35.0907C61.0369 36.7903 59.5413 39.8056 57.3213 39.8056C59.5413 39.8056 61.0369 41.7159 61.0369 43.1622V53.3992C61.0369 55.1403 59.6279 57.8599 55.3977 57.8599H44.1173V23.7062H55.3977C57.576 23.7062 61.0369 25.4908 61.0369 29.2708V35.0907ZM39.8444 51.9124C39.8444 55.3136 37.6234 58.3683 31.2975 58.3683C24.9737 58.3683 22.7527 54.3757 22.7527 51.9124V46.9848H28.3918L28.3949 52.9313C28.3949 54.5266 29.698 55.823 31.3016 55.823C32.9063 55.823 34.2053 54.4861 34.2053 52.8908L34.2042 23.7062H39.8444V51.9124ZM25.5728 36.7731C27.3741 36.7731 28.835 38.2245 28.835 40.0193C28.835 41.8101 27.3741 43.2635 25.5728 43.2635C23.7695 43.2635 22.3095 41.8101 22.3095 40.0193C22.3095 38.2245 23.7695 36.7731 25.5728 36.7731ZM30.7861 23.7062L25.5728 35.5141L20.3595 23.7062H30.7861ZM-0.150391 81.647H99.6635V0.0892258H-0.150391V81.647ZM52.8344 26.9342H49.7575V38.4028L52.8344 38.4129C54.8853 38.4129 55.3977 38.0635 55.3977 32.7126C55.3977 27.3606 54.8853 26.9342 52.8344 26.9342ZM53.1757 41.2956H49.7575V55.0553L53.1757 55.0634C55.3977 55.0634 55.3977 53.5674 55.3977 48.2174C55.3977 42.8635 55.3977 41.2956 53.1757 41.2956Z" fill="#FF3300"/>
</svg>
