<svg width="31" height="18" viewBox="0 0 31 18" fill="none" xmlns="http://www.w3.org/2000/svg">
<path d="M30.779 15.4579C30.7426 15.3797 30.7088 15.3147 30.6773 15.2627C30.1568 14.3253 29.1621 13.1746 27.6939 11.8105L27.6629 11.7792L27.6474 11.7639L27.6317 11.7482H27.6159C26.9496 11.113 26.5276 10.6859 26.3509 10.4672C26.0275 10.0506 25.9551 9.629 26.1318 9.20178C26.2567 8.879 26.7256 8.19733 27.5376 7.15583C27.9647 6.60388 28.303 6.1615 28.5528 5.82822C30.3544 3.43307 31.1355 1.90253 30.8959 1.23602L30.8028 1.08026C30.7403 0.986489 30.5789 0.900705 30.3189 0.822471C30.0582 0.744402 29.7251 0.731491 29.3189 0.783519L24.8205 0.814593C24.7476 0.788771 24.6436 0.791178 24.508 0.822471C24.3726 0.853765 24.3049 0.869467 24.3049 0.869467L24.2266 0.908583L24.1644 0.955578C24.1124 0.986652 24.0551 1.04131 23.9925 1.11943C23.9303 1.19728 23.8783 1.28864 23.8367 1.39276C23.347 2.65275 22.7902 3.82423 22.1652 4.90714C21.7799 5.55287 21.426 6.11248 21.1029 6.58632C20.7802 7.05998 20.5094 7.40897 20.2909 7.63268C20.0721 7.8566 19.8746 8.03599 19.6972 8.1715C19.5201 8.30707 19.3849 8.36435 19.2913 8.3434C19.1975 8.32244 19.1091 8.30165 19.0255 8.28087C18.8798 8.18709 18.7626 8.05957 18.6742 7.89818C18.5855 7.73679 18.5258 7.53365 18.4945 7.28894C18.4635 7.04406 18.4451 6.83344 18.4398 6.65634C18.435 6.47947 18.4372 6.22929 18.4478 5.90651C18.4586 5.58356 18.4635 5.36505 18.4635 5.25049C18.4635 4.85473 18.4712 4.42521 18.4867 3.96183C18.5024 3.49844 18.5152 3.13129 18.5258 2.86081C18.5364 2.59006 18.5414 2.3036 18.5414 2.00161C18.5414 1.69962 18.523 1.46278 18.4867 1.29089C18.4508 1.11921 18.3957 0.952569 18.3231 0.791014C18.25 0.629623 18.1431 0.504778 18.0029 0.416149C17.8623 0.32763 17.6876 0.257384 17.4796 0.205192C16.9277 0.0802919 16.2248 0.0127266 15.3708 0.00222248C13.434 -0.0185669 12.1896 0.106497 11.6377 0.377251C11.419 0.491647 11.2211 0.64795 11.0442 0.845668C10.8567 1.07484 10.8305 1.19991 10.9659 1.22048C11.5908 1.31409 12.0331 1.53801 12.2935 1.89203L12.3873 2.07962C12.4603 2.21497 12.5332 2.4546 12.6061 2.79817C12.6789 3.14174 12.7259 3.5218 12.7466 3.93814C12.7986 4.69843 12.7986 5.34924 12.7466 5.89064C12.6945 6.43226 12.6452 6.8539 12.5982 7.15589C12.5512 7.45788 12.481 7.70259 12.3873 7.88997C12.2935 8.0774 12.2311 8.19196 12.1998 8.23354C12.1686 8.27512 12.1425 8.30133 12.1218 8.31161C11.9865 8.36348 11.8457 8.3899 11.7 8.3899C11.5541 8.3899 11.3772 8.31692 11.169 8.17107C10.9608 8.02521 10.7448 7.82487 10.5208 7.56971C10.2969 7.31449 10.0444 6.95784 9.76312 6.49971C9.48208 6.04158 9.19048 5.50013 8.88849 4.87535L8.63863 4.42226C8.48244 4.13077 8.26908 3.70634 7.99832 3.14935C7.7274 2.59214 7.48794 2.05315 7.27978 1.53248C7.19656 1.31381 7.07156 1.14733 6.90497 1.03277L6.82679 0.985777C6.77481 0.944198 6.69138 0.900048 6.57693 0.852999C6.46232 0.806004 6.34272 0.772303 6.21766 0.751568L1.93785 0.782643C1.5005 0.782643 1.20376 0.881721 1.04752 1.0796L0.984983 1.17321C0.953744 1.22535 0.937988 1.30861 0.937988 1.42323C0.937988 1.53779 0.969227 1.67839 1.03176 1.84487C1.65653 3.31325 2.33596 4.72939 3.07004 6.0935C3.80413 7.45761 4.44203 8.55643 4.98338 9.38899C5.52483 10.2222 6.07673 11.0085 6.63908 11.7476C7.20143 12.487 7.57367 12.9608 7.7558 13.169C7.93814 13.3775 8.08137 13.5335 8.18548 13.6376L8.57605 14.0124C8.82596 14.2623 9.19294 14.5617 9.67717 14.9105C10.1615 15.2595 10.6977 15.603 11.286 15.9417C11.8745 16.2799 12.5591 16.5558 13.3401 16.7693C14.1211 16.9829 14.8812 17.0686 15.6206 17.0273H17.4169C17.7812 16.9958 18.0572 16.8813 18.2448 16.6835L18.307 16.6052C18.3488 16.5431 18.3879 16.4465 18.424 16.3166C18.4606 16.1865 18.4787 16.0431 18.4787 15.8871C18.4681 15.4394 18.5021 15.0359 18.58 14.6767C18.6579 14.3176 18.7466 14.0468 18.8459 13.8645C18.9451 13.6823 19.057 13.5286 19.1816 13.404C19.3064 13.2791 19.3954 13.2034 19.4476 13.1774C19.4994 13.1512 19.5408 13.1334 19.5721 13.1227C19.822 13.0394 20.1161 13.1201 20.4549 13.365C20.7933 13.6097 21.1108 13.9119 21.4078 14.271C21.7046 14.6304 22.0612 15.0337 22.4776 15.4814C22.8943 15.9292 23.2587 16.2621 23.571 16.4811L23.8832 16.6685C24.0918 16.7936 24.3625 16.9082 24.6958 17.0123C25.0285 17.1163 25.32 17.1424 25.5703 17.0903L29.5688 17.028C29.9643 17.028 30.272 16.9625 30.4903 16.8326C30.709 16.7024 30.839 16.559 30.8809 16.403C30.9227 16.2469 30.9249 16.0698 30.8888 15.8717C30.8518 15.6742 30.8153 15.536 30.779 15.4579Z" fill="#4A76A8"/>
</svg>
